:SAMPLES-PER-SECOND 30
:FULLY-SPECIFIED
:DEGREES
382
root  -34.1634 24.7803 -7.24961 -164.689 51.7627 171.24
RightUpLeg  -85.7821 22.9203 -20.7777
RightLeg  84.3436 1.70863 9.68778
RightFoot  -12.6936 -0.445484 -3.62618
RightToes  -36.7643 -0.193165 -0.296124
Spine  25.2069 -7.52607 10.6221
Spine1  37.2467 -20.4014 16.6814
HEad  -6.27464 -13.6974 27.7416
LeftShoulder1  0 -2.42657e-020 -4.95415e-022
LeftArm  -1.84894 -62.1674 -105.399
LeftForeArm  60.3841 -8.81477 -1.52258
LeftHand  1.15562 -13.6308 -10.0216
RightShoulder  0 2.42657e-020 1.07489e-018
RightArm  -67.6535 53.9328 60.9638
RightForeArm  26.388 21.1437 3.90504
RightHand  0.495086 24.0716 2.69246
LeftUpLeg  -58.1373 4.95233 7.70443
LeftLeg  88.2239 0.456725 4.69724
LeftFoot  -24.784 -1.20764 -5.49235
LeftToes  -22.4704 2.34596e-006 -6.06653e-008
383
root  -34.7317 25.7726 -7.64404 -166.379 55.5159 169.275
RightUpLeg  -84.1026 23.6575 -23.2464
RightLeg  79.0326 3.23294 11.8495
RightFoot  -9.76724 -0.323842 -3.41151
RightToes  -40.8761 -0.22552 -0.320018
Spine  24.7979 -7.46789 10.2624
Spine1  36.9843 -20.0407 16.2538
HEad  -5.56963 -12.5773 24.9326
LeftShoulder1  0 -2.42657e-020 -4.95415e-022
LeftArm  -7.07393 -59.092 -99.5655
LeftForeArm  58.1221 -10.499 -1.83152
LeftHand  1.12145 -13.6646 -9.71424
RightShoulder  0 2.42657e-020 1.07489e-018
RightArm  -65.2116 51.5699 57.7077
RightForeArm  32.8811 28.6776 5.52695
RightHand  0.682496 25.9691 3.33003
LeftUpLeg  -56.2489 5.23916 3.75926
LeftLeg  84.7869 0.520152 3.27586
LeftFoot  -26.1008 -1.00536 -4.33535
LeftToes  -22.7307 2.34596e-006 -6.06653e-008
384
root  -35.4184 26.9999 -8.02296 -167.302 59.346 167.228
RightUpLeg  -82.0144 22.9079 -25.1206
RightLeg  71.8083 6.32846 15.1832
RightFoot  -6.09105 -0.175548 -2.92138
RightToes  -44.4807 -0.25523 -0.339009
Spine  23.832 -7.3525 9.5801
Spine1  35.6885 -19.7759 15.9352
HEad  -4.64284 -10.7449 22.1824
LeftShoulder1  0 -2.42657e-020 -4.95415e-022
LeftArm  -11.5008 -55.7169 -94.8455
LeftForeArm  58.955 -10.9534 -1.91238
LeftHand  0.781544 -13.5041 -6.96749
RightShoulder  0 2.42657e-020 1.07489e-018
RightArm  -61.1306 48.1153 56.0803
RightForeArm  38.6589 37.808 7.85807
RightHand  0.616449 24.6001 3.19755
LeftUpLeg  -54.413 4.44589 -0.0877027
LeftLeg  78.796 -1.15916 -4.37805
LeftFoot  -25.3793 -0.055179 -0.245064
LeftToes  -32.3728 2.34596e-006 -6.06653e-008
385
root  -36.0918 28.3045 -8.37121 -167.968 64.1681 165.662
RightUpLeg  -79.6313 22.8905 -26.3596
RightLeg  63.3943 10.7449 17.6187
RightFoot  -1.30452 -0.0212756 -1.49188
RightToes  -48.8953 -0.293151 -0.359665
Spine  23.1034 -6.92225 8.59513
Spine1  34.7136 -19.0381 15.313
HEad  -3.322 -8.72815 19.1187
LeftShoulder1  0 -2.42657e-020 -4.95415e-022
LeftArm  -17.3426 -52.3436 -91.2842
LeftForeArm  59.759 -10.6984 -1.86426
LeftHand  0.464172 -12.866 -4.48737
RightShoulder  0 2.42657e-020 1.07489e-018
RightArm  -56.5742 45.1936 55.6121
RightForeArm  40.0642 45.5477 10.3615
RightHand  0.266093 22.8854 1.68503
LeftUpLeg  -51.682 3.88871 -3.36068
LeftLeg  72.1843 -4.85911 -12.1547
LeftFoot  -23.8373 0.805036 3.81266
LeftToes  -41.4009 2.34596e-006 -6.06653e-008
386
root  -36.6649 29.4269 -8.72236 -169.554 68.8628 163.452
RightUpLeg  -77.1978 23.2445 -27.5916
RightLeg  54.3716 8.24571 9.8802
RightFoot  2.38968 0.0123746 -0.215695
RightToes  -41.8832 -0.233699 -0.325511
Spine  22.348 -6.39412 7.55219
Spine1  34.071 -17.8111 13.9156
HEad  -1.57745 -7.29211 16.3243
LeftShoulder1  0 -2.42657e-020 -4.95415e-022
LeftArm  -19.9305 -49.119 -88.2411
LeftForeArm  57.1804 -10.4941 -1.83257
LeftHand  0.447834 -12.1496 -4.57866
RightShoulder  0 2.42657e-020 1.07489e-018
RightArm  -51.1732 42.8502 55.4215
RightForeArm  43.8265 49.8098 12.0625
RightHand  -0.573998 21.1119 -2.71031
LeftUpLeg  -48.2546 2.1692 -6.21035
LeftLeg  65.8512 -7.75214 -14.3455
LeftFoot  -20.5887 0.885245 4.87107
LeftToes  -44.4358 2.34596e-006 -6.06653e-008
387
root  -37.2061 30.1018 -8.99078 -171.817 73.7026 160.78
RightUpLeg  -74.5193 19.6933 -23.8308
RightLeg  50.8104 -6.06057 -6.53309
RightFoot  -2.2499 -0.0102942 -0.146726
RightToes  -18.9778 -0.0758339 -0.168553
Spine  21.4442 -5.30464 6.9279
Spine1  33.1529 -15.234 12.6845
HEad  -0.105996 -7.22318 13.7667
LeftShoulder1  0 -2.42657e-020 -4.95415e-022
LeftArm  -19.7748 -46.2403 -87.7416
LeftForeArm  56.2579 -9.89088 -1.72514
LeftHand  0.432647 -12.2097 -4.41591
RightShoulder  0 2.42657e-020 1.07489e-018
RightArm  -48.3307 40.7133 54.0924
RightForeArm  46.2272 50.9825 12.5835
RightHand  -1.31107 20.8001 -6.76652
LeftUpLeg  -45.4632 -1.70612 -7.7861
LeftLeg  60.3705 -6.05254 -9.12582
LeftFoot  -19.2209 0.535408 3.16122
LeftToes  -18.1443 2.34596e-006 -6.06653e-008
